<svg height="512pt" viewBox="0 -32 512 512" width="512pt" xmlns="http://www.w3.org/2000/svg">
  <path d="m455.359375 188.320312-296.320313 259.679688-100.640624-130.878906 376.480468-153.441406zm0 0" fill="#cbd62f"/>
  <path d="m455.359375 188.320312-20.480469-24.640624-376.480468 153.441406 29.105468 34.65625 162.257813-59.023438 38.398437 41.964844 25.441406-22.238281-30.449218-31.871094 109.839844-39.953125zm0 0" fill="#e83535"/>
  <path d="m433.121094 192-375.199219 136.480469-49.601563-136.480469v-16h424.800782zm0 0" fill="#964d9b"/>
  <path d="m8.320312 176v16l11.632813 32h170.09375l18.113281 49.761719 30.078125-10.882813-14.125-38.878906h121.039063l87.96875-32v-16zm0 0" fill="#238c38"/>
  <path d="m0 0h512v192h-512zm0 0" fill="#e4edfb"/>
  <path d="m0 0h160v192h-160zm0 0" fill="#40a2e7"/>
  <path d="m416 80h32v32h-32zm0 0" fill="#fff"/>
  <path d="m192 0h160v192h-160zm0 0" fill="#ffcb5a"/>
</svg>
