<svg height="511pt" viewBox="0 -98 511.99788 511" width="511pt" xmlns="http://www.w3.org/2000/svg"><path d="m268.34375 135.984375c-3.289062 3.542969-7.152344 6.855469-11.640625 9.882813 0 0-67.832031-36.160157-4.875-132.222657 1.703125-2.605469 5.617187-2.546875 7.585937-.121093 2.183594 2.675781 5.1875 7.285156 8.355469 13.253906 13.710938 25.726562 30.757813 76.867187.574219 109.207031zm0 0" fill="#fb5858"/><path d="m268.34375 135.984375c-14.980469-15.269531-34.332031-49.375-.574219-109.207031 13.710938 25.726562 30.757813 76.867187.574219 109.207031zm0 0" fill="#fc7979"/><path d="m259.355469 129.46875c-.179688 5.246094-1.019531 10.71875-2.652344 16.398438 0 0-74.289063 15.125-87.808594-98.921876-.371093-3.109374 2.667969-5.558593 5.738281-4.984374 4.816407.925781 13.265626 3.785156 23.039063 8.511718 26.625 12.90625 63.003906 39.714844 61.683594 78.996094zm0 0" fill="#fd9a9a"/><path d="m259.355469 129.46875c-20.867188-4.695312-50.027344-21.839844-61.683594-78.996094 26.625 12.90625 63.003906 39.714844 61.683594 78.996094zm0 0" fill="#fdbcbc"/><path d="m342.988281 46.945312c-.792969 6.675782-1.789062 12.90625-2.976562 18.726563-12.535157 61.828125-45.523438 76.964844-66.472657 80.113281-10.769531 1.632813-18.355468.082032-18.355468.082032-18.332032-63.890626 62.390625-100.144532 82.066406-103.902344 3.074219-.578125 6.109375 1.871094 5.738281 4.980468zm0 0" fill="#fd9a9a"/><path d="m340.011719 65.671875c-12.535157 61.828125-45.523438 76.964844-66.472657 80.109375-.648437-41.070312 39.894532-68.332031 66.472657-80.109375zm0 0" fill="#fdbcbc"/><path d="m493.886719 138.839844c-14.40625-13.5625-34.9375-18.789063-54.917969-13.984375-42.839844 10.300781-52.859375 67.082031-18.683594 88.003906 17.9375 10.984375 42.671875 7.699219 54.058594-10.894531 14.945312-24.417969-3.597656-53.816406-29.855469-49.300782-13.941406 1.167969-18.394531 19.546876-6.398437 26.894532 7.980468 4.882812 18.6875 1.105468 21.507812-8.191406 2.09375 1.953124 3.570313 4.46875 4.257813 7.316406 4.429687 18.417968-16.625 32.914062-35.660157 21.257812-22.742187-13.925781-15.367187-53.222656 14.316407-60.359375 15.222656-3.660156 30.164062.089844 40.992187 10.285157 34.007813 32.015624-2.839844 88.738281-47.335937 80.140624-12.378907-2.394531-23.65625-9.574218-33.996094-16.972656-92.691406-66.316406-193.21875-70.996094-292.453125 0-10.34375 7.398438-21.621094 14.578125-34 16.972656-44.347656 8.5625-81.421875-48.046874-47.332031-80.140624 10.828125-10.195313 25.773437-13.945313 40.992187-10.285157 19.316406 4.644531 31.253906 24.140625 26.609375 43.457031-5.433593 22.582032-35.144531 27.96875-45.523437 11.015626-5.117188-8.355469-3.417969-17.46875 1.785156-22.597657 2.8125 9.253907 13.496094 13.089844 21.503906 8.183594 11.632813-7.121094 7.882813-24.808594-5.464844-26.792969-26.046874-5.339844-46.128906 23.984375-30.742187 49.117188 17.402344 28.417968 64.578125 20.328125 73.167969-15.386719 6.597656-27.4375-10.359375-55.125-37.796875-61.722656-19.980469-4.804688-40.511719.421875-54.917969 13.984375-44.796875 42.171875 1.042969 117.566406 60.59375 106.039062 27.535156-5.324218 37.476562-21.875 76.972656-42.265625-16.140625 18.84375-22.359375 41.871094-16.800781 64.988281 8.019531 33.359376 41.515625 53.867188 74.871094 45.84375 42.839843-10.300781 52.855469-67.078124 18.683593-88.003906-30.558593-18.710937-65.867187 6.253906-58.296874 37.71875 3.699218 15.402344 18.535156 24.890625 33.59375 22.558594 14.113281-1.121094 18.355468-19.617188 6.460937-26.898438-7.859375-4.8125-18.363281-1.222656-21.386719 7.792969-5.75-5.703125-5.746094-15.449219-1.511718-22.363281 10.417968-17.011719 40.105468-11.511719 45.523437 11.011719 4.644531 19.320312-7.292969 38.8125-26.609375 43.457031-51.449219 12.371094-87.3125-60.015625-25.53125-101.640625 39.75-26.78125 102.710938-26.984375 142.765625 0 25.421875 17.128906 37.035156 42.167969 31.066406 66.984375-6.0625 25.21875-31.378906 40.71875-56.601562 34.65625-29.769531-7.160156-37.007813-46.46875-14.316407-60.359375 19.015626-11.648437 40.09375 2.824219 35.660157 21.261719-.644531 2.691406-2.015625 5.082031-3.929688 6.984375-3.007812-9.03125-13.519531-12.652344-21.398437-7.828125-6.851563 4.195312-9.003906 13.152344-4.808594 20.007812 8.441406 13.785156 39.113281 8.292969 44.863281-15.625 7.535157-31.328125-27.550781-56.542968-58.296875-37.71875-34.269531 20.984375-24.011718 77.738282 18.683594 88.003906 59.445312 14.296876 103.847656-57.375 58.070312-110.832031 38.019532 19.628907 49.949219 37.039063 76.972657 42.261719 59.144531 11.445312 105.804687-63.476562 60.59375-106.035156zm0 0"/><path d="m169.308594 84.753906c1.261718 3.988282 5.515625 6.203125 9.503906 4.9375 3.988281-1.25 6.199219-5.511718 4.9375-9.5-2.707031-8.585937-4.707031-18.078125-5.96875-28.296875 28.347656 9.394531 57.898438 27.109375 70.203125 54.199219-3.917969 11.046875-5.414063 22.886719-4.714844 34.445312-19.195312-4.746093-35.960937-16.175781-47.785156-34.699218-2.253906-3.535156-6.9375-4.5625-10.460937-2.3125-3.527344 2.242187-4.566407 6.929687-2.3125 10.453125 49.296874 77.269531 159.6875 51.378906 167.558593-72.515625.152344-2.382813-.828125-4.695313-2.644531-6.242188-1.816406-1.542968-4.261719-2.152344-6.59375-1.625-1.746094.402344-27.617188 6.472656-52.339844 23.0625-4.453125-15.851562-12.875-33.625-27.195312-53.074218-2.992188-4.082032-9.070313-4.121094-12.128906-.09375-9.570313 12.625-20.636719 34.199218-25.828126 53.554687-24.90625-16.574219-50.96875-22.53125-52.734374-22.914063-4.960938-1.09375-9.539063 2.910157-9.179688 7.917969 1.089844 15.628907 3.675781 30 7.683594 42.703125zm164.847656-33.34375c-5.558594 46.308594-28.863281 86.613282-75.578125 90.984375-1.886719-21.695312 4.550781-40.597656 19.257813-56.671875 14.523437-15.898437 35.777343-27.367187 56.320312-34.3125zm-78.605469-29.878906c10.953125 16.660156 17.15625 31.707031 20.105469 45.097656-7.332031 6.402344-14.109375 13.914063-19.5625 22.679688-5.441406-8.613282-12.15625-15.996094-19.410156-22.296875 3.371094-15.699219 10.53125-31.832031 18.867187-45.480469zm0 0"/></svg>