<svg height="511pt" viewBox="0 1 511.99986 511" width="511pt" xmlns="http://www.w3.org/2000/svg"><g fill="#fb5858"><path d="m257.46875 269.585938c0 8.039062-6.515625 14.554687-14.554688 14.554687-8.039062 0-14.554687-6.515625-14.554687-14.554687 0-8.039063 6.515625-14.558594 14.554687-14.558594 8.039063 0 14.554688 6.519531 14.554688 14.558594zm0 0"/><path d="m140.242188 204.578125c0 8.039063-6.515626 14.558594-14.554688 14.558594s-14.554688-6.519531-14.554688-14.558594 6.515626-14.554687 14.554688-14.554687 14.554688 6.515624 14.554688 14.554687zm0 0"/><path d="m322.476562 386.8125c0 8.039062-6.515624 14.554688-14.554687 14.554688s-14.554687-6.515626-14.554687-14.554688 6.515624-14.554688 14.554687-14.554688 14.554687 6.515626 14.554687 14.554688zm0 0"/><path d="m347.863281 187.636719c-6.445312.246093-13.21875-.265625-20.308593-1.640625 0 0-29.996094-98.050782 119.960937-129.472656 4.066406-.855469 7.707031 2.890624 7.28125 7.035156-.460937 4.585937-1.96875 11.765625-4.59375 20.386718-11.289063 37.214844-43.367187 101.578126-102.339844 103.691407zm0 0"/></g><path d="m347.863281 187.636719c.234375-28.539063 14.085938-78.980469 102.339844-103.691407-11.289063 37.214844-43.367187 101.578126-102.339844 103.691407zm0 0" fill="#fc7979"/><path d="m345.507812 173.007812c-5.109374 4.785157-11.0625 9.164063-17.953124 12.988282 0 0-84.414063-55.695313 10.261718-176.148438 2.578125-3.285156 7.753906-2.738281 10.113282.703125 3.675781 5.40625 8.964843 16.066407 13.742187 29.742188 12.988281 37.273437 22.089844 96.859375-16.164063 132.714843zm0 0" fill="#fd9a9a"/><path d="m345.507812 173.007812c-15.28125-24.089843-26.671874-67.75 16.164063-132.714843 12.988281 37.273437 22.089844 96.859375-16.164063 132.714843zm0 0" fill="#fdbcbc"/><path d="m502.242188 173.859375c-7.035157 5.554687-13.847657 10.5-20.453126 14.882813-70.082031 46.585937-115.5 29.804687-138.25 13.039062-11.710937-8.601562-17.417968-17.214844-17.417968-17.214844 42.878906-77.613281 153.273437-35.808594 175.398437-20.820312 3.445313 2.351562 4.003907 7.523437.722657 10.113281zm0 0" fill="#fd9a9a"/><path d="m481.789062 188.742188c-70.082031 46.585937-115.5 29.804687-138.25 13.039062 38.078126-39.398438 102.050782-26.957031 138.25-13.039062zm0 0" fill="#fdbcbc"/><path d="m349.476562 412.617188c15.457032-11.027344 15.285157-33.042969 2.671876-45.660157l-33.566407-33.578125c-42.488281-45.339844-29.777343-87.457031-24.863281-99.296875l3.878906-9.363281c2.558594-6.171875-3.644531-12.382812-9.820312-9.820312l-9.375 3.882812c-11.835938 4.914062-53.972656 17.628906-99.328125-24.90625l-33.535157-33.523438c-12.652343-12.65625-34.65625-12.746093-45.660156 2.667969-28.128906 39.417969-52.160156 52.371094-91.824218 49.527344-4.128907-.292969-7.738282 2.816406-8.0351568 6.957031-.2968752 4.140625 2.8203128 7.738282 6.9609378 8.035156 44.714843 3.207032 74.195312-12.429687 105.136719-55.785156 1.773437-2.484375 2.804687-3.148437 2.917968-3.214844 6.402344-3.867187 14.574219-2.863281 19.878906 2.441407l33.285157 33.285156c29.449219 28.933594 70.25 43.03125 109.1875 30.847656-12.242188 39.132813 2.304687 80.636719 30.480469 108.808594l33.652343 33.664063c5.304688 5.304687 6.308594 13.476562 2.441407 19.875-.066407.113281-.734376 1.148437-3.214844 2.917968-43.359375 30.941406-59 60.421875-55.785156 105.140625.296874 4.183594 3.949218 7.265625 8.035156 6.957031 4.140625-.296874 7.253906-3.894531 6.957031-8.035156-2.851563-39.667968 10.109375-63.695312 49.523437-91.824218zm0 0"/><path d="m242.910156 247.511719c-12.164062 0-22.066406 9.902343-22.066406 22.078125 0 12.164062 9.902344 22.066406 22.066406 22.066406 12.179688 0 22.078125-9.902344 22.078125-22.066406 0-12.175782-9.898437-22.078125-22.078125-22.078125zm0 29.113281c-3.875 0-7.035156-3.15625-7.035156-7.035156 0-3.890625 3.160156-7.046875 7.035156-7.046875 3.890625 0 7.046875 3.15625 7.046875 7.046875 0 3.878906-3.15625 7.035156-7.046875 7.035156zm0 0"/><path d="m125.691406 182.511719c-12.179687 0-22.078125 9.902343-22.078125 22.066406 0 12.167969 9.898438 22.066406 22.078125 22.066406 12.164063 0 22.066406-9.898437 22.066406-22.066406 0-12.164063-9.902343-22.066406-22.066406-22.066406zm0 29.101562c-3.878906 0-7.046875-3.15625-7.046875-7.035156s3.167969-7.035156 7.046875-7.035156c3.875 0 7.035156 3.15625 7.035156 7.035156s-3.160156 7.035156-7.035156 7.035156zm0 0"/><path d="m329.988281 386.808594c0-12.164063-9.902343-22.066406-22.066406-22.066406-12.167969 0-22.066406 9.902343-22.066406 22.066406 0 12.179687 9.898437 22.078125 22.066406 22.078125 12.164063 0 22.066406-9.898438 22.066406-22.078125zm-29.101562 0c0-3.875 3.15625-7.03125 7.035156-7.03125s7.035156 3.15625 7.035156 7.03125c0 3.890625-3.15625 7.046875-7.035156 7.046875s-7.035156-3.15625-7.035156-7.046875zm0 0"/><path d="m310.464844 241.03125v-.003906c-.003906.011718-.003906.011718 0 .003906zm0 0"/><path d="m310.472656 241.011719c-.003906.007812-.007812.011719-.007812.015625 0-.003906.003906-.007813.007812-.015625-.003906 0-.003906 0 0 0zm0 0"/><path d="m505.828125 158.4375c-4.8125-3.265625-12.21875-7.011719-20.847656-10.539062-3.847657-1.574219-8.234375.257812-9.808594 4.105468-1.5625 3.839844.269531 8.230469 4.117187 9.804688 6.683594 2.734375 12.808594 5.742187 16.789063 8.214844-51.363281 39.988281-117.929687 63.519531-159.644531 14.523437 24.433594-38.96875 70.722656-42.804687 115.308594-31.710937 4.015624 1.003906 8.097656-1.453126 9.097656-5.480469 1.003906-4.027344-1.441406-8.105469-5.472656-9.109375-6.523438-1.625-12.945313-2.90625-19.25-3.839844 15.265624-24.820312 24.886718-53.972656 26.40625-68.847656.917968-9.054688-7.089844-17.003906-16.246094-15.113282-26.9375 5.613282-49.804688 13.621094-68.484375 23.984376-.914063-5.671876-2.09375-11.457032-3.546875-17.296876-1.003906-4.03125-5.082032-6.484374-9.113282-5.472656-4.027343 1-6.472656 5.082032-5.46875 9.097656 6.8125 27.4375 8.703126 59.433594-3.878906 84.882813-11.726562 6.632813-22.0625 15.949219-30.285156 28.171875-15.335938-14.527344-24.914062-35.300781-24.914062-59.097656 0-29.511719 14.089843-62.574219 41.878906-98.289063 2.488281 3.976563 5.492187 10.101563 8.230468 16.792969 1.570313 3.839844 5.949219 5.683594 9.800782 4.109375 3.835937-1.574219 5.679687-5.960937 4.109375-9.800781-3.53125-8.636719-7.277344-16.035156-10.554688-20.855469-5.234375-7.691406-16.496093-8.335937-22.148437-1.132813-30.753906 39.035157-46.347656 75.765626-46.347656 109.175782 0 26.519531 9.71875 45.878906 19.289062 58.515625.007812.007812.011719.015625.015625.023437-7.960937.703125-11.730469 3.664063-21.832031 7.71875l-17.328125 7.179688c-7.171875 2.976562-32.941407 10.445312-63.707031-18.246094l-33.003907-33.003906c-27.21875-27.21875-73.199219-25.230469-96.101562 6.855468-22.953125 32.167969-39.839844 37.136719-64.832031 35.347657-4.140626-.296875-7.738282 2.816406-8.0351568 6.957031-.2968752 4.140625 2.8203128 7.738281 6.9570308 8.035156 29.191407 2.09375 51.339844-4.039062 78.148438-41.605468 17.488281-24.5 52.578125-25.613282 73.234375-4.960938 42.742187 42.738281 31.234375 31.359375 33.277344 33.273438 37.375 34.925781 70.546875 25.082031 79.824219 21.234374 7.136718-2.960937 20.800781-8.515624 29.511718-12.496093 13.644532-5.949219 27.511719 7.726562 21.898438 21.414062-12.050782 29.210938-5.496094 13.320313-12.398438 30.054688-.011718.097656-18.214844 39.769531 21.398438 80.03125l33.09375 33.09375c20.644531 20.640625 19.554687 55.734375-4.957032 73.234375-37.898437 27.046875-44.105468 49.132812-42.023437 78.148437.285156 3.957031 3.582031 6.976563 7.488281 6.976563 4.390625 0 7.816406-3.71875 7.507813-8.054688-1.78125-24.800781 3.261719-41.640625 35.761719-64.832031 32.09375-22.914063 34.066406-68.890625 6.855468-96.101563l-33.003906-33.003906c-28.695312-30.765625-21.222656-56.542968-18.242188-63.71875l7.296876-17.609375c3.984374-10.449219 6.710937-14.28125 7.375-21.71875 12.625 9.640625 32.066406 19.488281 58.761718 19.488281 33.410156 0 70.148438-15.59375 109.171875-46.347656 7.261719-5.714844 6.503907-16.976562-1.128906-22.160156zm-126.164063-67.722656c17.761719-10.875 40.378907-19.273438 67.71875-25.136719-1.84375 13.390625-11.214843 42.023437-28.089843 67.105469-14.859375-.785156-29.90625.394531-44.246094 4.769531 4.625-15.15625 5.679687-31.113281 4.617187-46.738281zm0 0"/><path d="m310.5 240.941406c.011719-.03125.023438-.058594.035156-.085937-.023437.054687-.027344.066406-.035156.085937zm0 0"/><path d="m310.554688 240.804688c.003906-.003907.003906-.011719.007812-.015626.042969-.101562.035156-.085937-.007812.015626zm0 0"/><path d="m310.589844 240.71875c.011718-.019531.019531-.042969.027344-.0625-.007813.019531-.015626.039062-.027344.0625zm0 0"/><path d="m310.65625 240.558594c.007812-.019532.011719-.019532 0 0zm0 0"/><path d="m310.65625 240.566406c-.042969.101563-.058594.140625-.019531.039063.007812-.011719.011719-.027344.019531-.039063zm0 0"/></svg>