<svg height="512pt" viewBox="0 0 512 512" width="512pt" xmlns="http://www.w3.org/2000/svg"><g fill="#72d8ff"><path d="m476.53125 501.332031c-.371094.074219-.746094.140625-1.125.203125.378906-.0625.753906-.128906 1.125-.203125zm0 0"/><path d="m481.167969 499.992188c-.402344.148437-.808594.285156-1.214844.421874.40625-.132812.8125-.273437 1.214844-.421874zm0 0"/><path d="m479.652344 500.515625c-.390625.125-.789063.234375-1.1875.34375.398437-.109375.796875-.21875 1.1875-.34375zm0 0"/><path d="m478.105469 500.960938c-.378907.101562-.765625.1875-1.152344.273437.386719-.085937.773437-.171875 1.152344-.273437zm0 0"/><path d="m31.453125 500.214844c-.273437-.097656-.546875-.195313-.816406-.300782.269531.105469.542969.203126.816406.300782zm0 0"/><path d="m484.09375 498.730469c-.414062.207031-.839844.398437-1.265625.585937.425781-.1875.851563-.378906 1.265625-.585937zm0 0"/><path d="m28.761719 499.132812c-.300781-.136718-.601563-.277343-.898438-.421874.296875.144531.597657.28125.898438.421874zm0 0"/><path d="m30.082031 499.695312c-.285156-.113281-.570312-.230468-.851562-.351562.28125.125.566406.238281.851562.351562zm0 0"/><path d="m485.503906 497.996094c-.421875.230468-.847656.453125-1.28125.667968.433594-.214843.859375-.4375 1.28125-.667968zm0 0"/><path d="m482.648438 499.398438c-.410157.175781-.824219.339843-1.242188.5.417969-.160157.832031-.324219 1.242188-.5zm0 0"/><path d="m35.796875 501.394531c-.246094-.050781-.492187-.105469-.738281-.160156.246094.054687.492187.109375.738281.160156zm0 0"/><path d="m40.414062 501.960938c-.183593-.011719-.363281-.027344-.546874-.039063.183593.011719.363281.027344.546874.039063zm0 0"/><path d="m32.867188 500.671875c-.265626-.082031-.53125-.164063-.792969-.25.261719.085937.527343.167969.792969.25zm0 0"/><path d="m471.664062 501.957031c-.550781.027344-1.105468.042969-1.664062.042969.558594 0 1.113281-.015625 1.664062-.042969zm0 0"/><path d="m38.847656 501.84375c-.21875-.019531-.433594-.050781-.652344-.078125.21875.027344.433594.054687.652344.078125zm0 0"/><path d="m474.933594 501.621094c-.371094.058594-.746094.101562-1.121094.144531.375-.042969.75-.085937 1.121094-.144531zm0 0"/><path d="m473.308594 501.828125c-.394532.042969-.792969.070313-1.195313.09375.402344-.023437.800781-.050781 1.195313-.09375zm0 0"/><path d="m34.316406 501.066406c-.257812-.0625-.511718-.132812-.765625-.203125.253907.070313.507813.136719.765625.203125zm0 0"/><path d="m492.964844 492.273438c-1.453125 1.496093-3.046875 2.851562-4.765625 4.042968 1.71875-1.191406 3.3125-2.546875 4.765625-4.042968zm0 0"/><path d="m132 203.5-52.5 52.5v200.1875l176.5-113.1875 236.964844 149.273438c5.589844-5.761719 9.035156-13.613282 9.035156-22.273438v-214l-73.625-73.625zm0 0"/><path d="m488.1875 496.324219c-.417969.289062-.84375.570312-1.277344.839843.433594-.269531.859375-.550781 1.277344-.839843zm0 0"/><path d="m37.308594 501.65625c-.234375-.035156-.46875-.078125-.703125-.117188.234375.039063.46875.082032.703125.117188zm0 0"/><path d="m486.867188 497.191406c-.421876.261719-.851563.515625-1.285157.757813.433594-.242188.863281-.496094 1.285157-.757813zm0 0"/><path d="m27.515625 498.53125c-.332031-.167969-.660156-.339844-.980469-.515625.320313.179687.648438.347656.980469.515625zm0 0"/></g><path d="m472.113281 501.921875c.402344-.023437.800781-.050781 1.195313-.09375.171875-.015625.335937-.042969.503906-.0625.375-.042969.75-.085937 1.121094-.144531.160156-.027344.316406-.058594.476562-.085938.375-.0625.75-.128906 1.121094-.207031.144531-.027344.285156-.0625.425781-.097656.386719-.085938.769531-.171875 1.152344-.269531.117187-.03125.238281-.070313.355469-.101563.398437-.109375.796875-.222656 1.1875-.347656.101562-.03125.199218-.066407.300781-.101563.410156-.132812.816406-.269531 1.214844-.417968.078125-.03125.15625-.0625.238281-.09375.417969-.160157.832031-.328126 1.242188-.503907.0625-.027343.121093-.054687.179687-.078125.425781-.1875.851563-.382812 1.265625-.585937.042969-.023438.085938-.046875.128906-.066407.433594-.214843.859375-.4375 1.28125-.671874.023438-.015626.050782-.03125.078125-.046876.433594-.242187.863281-.492187 1.285157-.753906.015624-.011718.027343-.019531.042968-.03125.433594-.269531.859375-.546875 1.277344-.839844.003906 0 .007812-.003906.011719-.007812 1.71875-1.191406 3.3125-2.542969 4.765625-4.039062v-.003907l-173.152344-109.070312-172.597656 110.6875c1.730468 1.542969 3.632812 2.898437 5.671875 4.042969.046875.027343.097656.058593.148437.085937.320313.179687.648438.347656.980469.515625.117187.058594.230469.121094.347656.179688.296875.144531.597657.28125.898438.421874.15625.070313.3125.140626.46875.210938.28125.121094.566406.238281.851562.351562.183594.074219.367188.148438.554688.21875.269531.101563.542969.199219.816406.296876.207031.070312.414063.140624.621094.210937.261719.085937.527343.167969.792969.246094.226562.066406.453124.132812.683593.195312.253907.070313.507813.136719.765625.199219.246094.0625.492188.117188.742188.171875.246094.054687.492187.109375.738281.160156.269531.050781.539063.097657.808594.140625.234375.042969.46875.082032.703125.117188.292968.042968.589844.078125.886718.113281.21875.027344.433594.054687.65625.078125.335938.03125.675782.054688 1.019532.078125.179687.011719.359375.027344.542968.039063.527344.023437 1.054688.039062 1.585938.039062h301.5c.558594 0 1.113281-.015625 1.664062-.042969.152344-.007812.300782-.023437.449219-.035156zm0 0" fill="#ade5ff"/><path d="m422.527344 107.6875v-57.949219c0-21.949219 17.789062-39.738281 39.738281-39.738281 21.945313 0 39.734375 17.789062 39.734375 39.738281v57.949219zm0 0" fill="#ffc66c"/><path d="m64 289.742188v-240.003907c0-21.949219 17.789062-39.738281 39.738281-39.738281h358.527344c-21.949219 0-39.738281 17.789062-39.738281 39.738281v252.761719l-113.394532 74.011719-53.132812-33.511719-53.132812 33.511719zm0 0" fill="#fff"/><path d="m243.261719 111.902344c-1.9375-2.132813-4.070313-4.066406-6.367188-5.785156-11.160156 8.34375-18.441406 21.96875-18.441406 37.378906 0 26.125 28.371094 51.859375 50.476563 67.945312 22.105468-16.085937 50.476562-41.820312 50.476562-67.945312 0-25.390625-19.746094-45.976563-44.105469-45.976563-12.617187 0-24 5.527344-32.039062 14.382813zm0 0" fill="#ff5d5d"/><path d="m446.929688 411.609375c1.859374 1.871094 4.441406 2.929687 7.070312 2.929687s5.210938-1.058593 7.070312-2.929687c1.859376-1.859375 2.929688-4.429687 2.929688-7.070313 0-2.628906-1.070312-5.210937-2.929688-7.070312-1.859374-1.859375-4.441406-2.929688-7.070312-2.929688s-5.210938 1.070313-7.070312 2.929688c-1.859376 1.859375-2.929688 4.441406-2.929688 7.070312 0 2.640626 1.070312 5.210938 2.929688 7.070313zm0 0"/><path d="m502 117.6875c5.523438 0 10-4.476562 10-10v-57.949219c0-27.425781-22.3125-49.738281-49.738281-49.738281h-358.523438c-27.425781 0-49.738281 22.3125-49.738281 49.738281v148.121094l-51.070312 51.070313c-1.875 1.875-2.929688 4.417968-2.929688 7.070312v214c0 23.160156 18.839844 42 42 42h428c23.160156 0 42-18.839844 42-42v-214c0-2.652344-1.054688-5.195312-2.929688-7.070312l-76.542968-76.546876v-54.695312zm-10-67.949219v47.949219h-59.472656v-47.949219c0-16.398437 13.339844-29.738281 29.734375-29.738281 16.398437 0 29.738281 13.339844 29.738281 29.738281zm-388.261719-29.738281h318.679688c-6.207031 8.300781-9.890625 18.597656-9.890625 29.738281v250.378907l-103.371094 64.589843-47.820312-30.164062c-3.261719-2.054688-7.410157-2.054688-10.671876 0l-47.820312 30.164062-128.84375-80.507812v-234.460938c0-16.398437 13.339844-29.738281 29.738281-29.738281zm350.261719 352.878906c5.523438 0 10-4.476562 10-10v-71.34375l28-17.496094v195.960938c0 3.148438-.671875 6.140625-1.867188 8.851562l-162.191406-102.300781 116.058594-72.519531v58.847656c0 5.523438 4.476562 10 10 10zm-432.132812 105.972656c-1.195313-2.710937-1.867188-5.703124-1.867188-8.851562v-195.960938l164.058594 102.511719zm32.132812-207.148437-28.039062-17.519531 28.039062-28.042969zm-12 220.296875c-1.0625 0-2.105469-.078125-3.128906-.226562l217.128906-136.949219 217.128906 136.949219c-1.023437.148437-2.066406.226562-3.128906.226562zm444.039062-237.816406-53.511718 33.433594v-86.949219zm0 0"/><path d="m198.808594 209.519531c19.546875 16.210938 38.835937 26.851563 39.644531 27.296875 1.5.820313 3.15625 1.230469 4.808594 1.230469 1.65625 0 3.3125-.410156 4.808593-1.230469.8125-.445312 20.101563-11.085937 39.648438-27.296875 27.660156-22.945312 41.6875-45.15625 41.6875-66.023437 0-30.863282-24.269531-55.976563-54.105469-55.976563-11.558593 0-22.8125 3.886719-32.039062 10.882813-9.222657-6.996094-20.480469-10.882813-32.039063-10.882813-29.832031 0-54.101562 25.113281-54.101562 55.976563 0 20.867187 14.023437 43.078125 41.6875 66.023437zm12.417968-102c9.382813 0 18.132813 3.945313 24.632813 11.105469 1.894531 2.085938 4.582031 3.277344 7.402344 3.277344 2.820312 0 5.511719-1.191406 7.40625-3.277344 6.5-7.160156 15.246093-11.105469 24.632812-11.105469 18.804688 0 34.105469 16.140625 34.105469 35.976563 0 27.976562-44 59.878906-66.148438 73.03125-22.152343-13.132813-66.136718-44.996094-66.136718-73.03125 0-19.835938 15.296875-35.976563 34.105468-35.976563zm0 0"/><path d="m184.140625 278.480469c0 5.523437 4.476563 10 10 10h138.859375c5.523438 0 10-4.476563 10-10 0-5.523438-4.476562-10-10-10h-138.859375c-5.523437 0-10 4.476562-10 10zm0 0"/><path d="m153.53125 288.480469c2.628906 0 5.199219-1.070313 7.070312-2.929688 1.859376-1.859375 2.929688-4.441406 2.929688-7.070312 0-2.628907-1.070312-5.210938-2.929688-7.070313-1.871093-1.859375-4.441406-2.929687-7.070312-2.929687-2.640625 0-5.210938 1.070312-7.070312 2.929687-1.871094 1.859375-2.929688 4.441406-2.929688 7.070313 0 2.628906 1.058594 5.210937 2.929688 7.070312 1.859374 1.859375 4.429687 2.929688 7.070312 2.929688zm0 0"/></svg>