<svg height="512pt" viewBox="0 0 512 512" width="512pt" xmlns="http://www.w3.org/2000/svg"><path d="m377.21875 80.132812c2.992188-3.375 3.355469-8.332031.890625-12.105468l-34.9375-53.496094c-1.789063-2.742188-4.808594-4.414062-8.070313-4.511719l-82.265624.019531c-3.367188 0-6.511719 1.699219-8.359376 4.519532l-35.058593 53.464844c-2.476563 3.777343-2.113281 8.742187.878906 12.117187l50.457031 127.117187zm0 0" fill="#4dbaf6"/><path d="m274.878906 207.191406c-72.824218 9.273438-129.121094 71.464844-129.121094 146.808594s56.296876 137.535156 129.121094 146.808594c72.824219-9.273438 129.121094-71.46875 129.121094-146.808594 0-75.34375-56.296875-137.535156-129.121094-146.808594zm-18.878906 254.808594c-59.648438 0-108-48.355469-108-108 0-59.648438 48.351562-108 108-108 59.644531 0 108 48.351562 108 108 0 59.644531-48.355469 108-108 108zm0 0" fill="#ffb954"/><path d="m404 344c-5.523438 0-10 4.476562-10 10v.105469c0 5.523437 4.476562 10 10 10s10-4.476563 10-10v-.105469c0-5.523438-4.476562-10-10-10zm0 0"/><path d="m401.109375 384.9375c-5.3125-1.511719-10.84375 1.570312-12.355469 6.882812-16.769531 58.984376-71.359375 100.179688-132.753906 100.179688-76.09375 0-138-61.90625-138-138s61.90625-138 138-138c62.035156 0 116.777344 41.738281 133.125 101.5 1.457031 5.328125 6.964844 8.464844 12.28125 7.007812 5.328125-1.457031 8.464844-6.957031 7.007812-12.285156-16.082031-58.800781-64.621093-102.363281-123.023437-113.460937l99.3125-111.996094c5.960937-6.726563 6.695313-16.679687 1.777344-24.207031l-34.9375-53.496094c-3.707031-5.675781-9.964844-9.0625-16.742188-9.0625 0 0-.003906 0-.007812 0l-157.214844.0390625c-6.761719.0039063-13.011719 3.3789065-16.71875 9.0351565l-35.058594 53.46875c-4.9375 7.53125-4.214843 17.496093 1.761719 24.234375l99.253906 111.933594c-73.226562 13.730468-128.816406 78.136718-128.816406 155.289062 0 87.121094 70.878906 158 158 158 35.066406 0 68.273438-11.25 96.035156-32.527344 26.875-20.597656 46.746094-49.785156 55.957032-82.183594 1.511718-5.3125-1.570313-10.84375-6.882813-12.351562zm-116.351563-300.515625-28.628906 96.148437-28.632812-96.148437zm-52.203124-20 23.574218-36.125 23.570313 36.125zm73.070312 20h54.425781l-81.941406 92.410156zm-31.019531-64.40625 47.136719-.011719-23.574219 36.117188zm-60.4375 35.976563-23.464844-35.957032 46.941406-.011718zm19.976562 120.839843-81.941406-92.410156h54.425781zm129.664063-112.410156h-47.171875l23.578125-36.128906zm-191.617188-36.15625 23.59375 36.15625h-47.300781zm0 0"/><path d="m256 236c-65.066406 0-118 52.933594-118 118 0 65.0625 52.933594 118 118 118s118-52.9375 118-118c0-65.066406-52.933594-118-118-118zm0 216c-54.035156 0-98-43.964844-98-98 0-54.039062 43.964844-98 98-98s98 43.960938 98 98c0 54.035156-43.964844 98-98 98zm0 0"/><path d="m462 53.996094c-5.523438 0-10 4.476562-10 10v13.8125c0 5.519531 4.476562 10 10 10s10-4.480469 10-10v-13.8125c0-5.523438-4.476562-10-10-10zm0 0"/><path d="m462 120.183594c-5.523438 0-10 4.476562-10 10v13.8125c0 5.523437 4.476562 10 10 10s10-4.476563 10-10v-13.8125c0-5.523438-4.476562-10-10-10zm0 0"/><path d="m502 93.996094h-13.8125c-5.523438 0-10 4.476562-10 10 0 5.523437 4.476562 10 10 10h13.8125c5.523438 0 10-4.476563 10-10 0-5.523438-4.476562-10-10-10zm0 0"/><path d="m435.8125 93.996094h-13.8125c-5.523438 0-10 4.476562-10 10 0 5.523437 4.476562 10 10 10h13.8125c5.523438 0 10-4.476563 10-10 0-5.523438-4.476562-10-10-10zm0 0"/><path d="m50 166c-5.523438 0-10 4.476562-10 10v13.808594c0 5.523437 4.476562 10 10 10s10-4.476563 10-10v-13.808594c0-5.523438-4.476562-10-10-10zm0 0"/><path d="m50 232.1875c-5.523438 0-10 4.476562-10 10v13.8125c0 5.523438 4.476562 10 10 10s10-4.476562 10-10v-13.8125c0-5.523438-4.476562-10-10-10zm0 0"/><path d="m90 206h-13.8125c-5.523438 0-10 4.476562-10 10s4.476562 10 10 10h13.8125c5.523438 0 10-4.476562 10-10s-4.476562-10-10-10zm0 0"/><path d="m23.8125 206h-13.8125c-5.523438 0-10 4.476562-10 10s4.476562 10 10 10h13.8125c5.523438 0 10-4.476562 10-10s-4.476562-10-10-10zm0 0"/></svg>