<svg height="511pt" viewBox="0 0 511.99962 511" width="511pt" xmlns="http://www.w3.org/2000/svg"><path d="m128.320312 418.335938c46.578126 32.425781 108.882813 32.425781 155.460938 0-46.578125-32.429688-108.882812-32.429688-155.460938 0zm0 0" fill="#a0e557"/><path d="m126.875 381.804688c30.3125-45.527344 30.3125-105.265626 0-150.792969-30.3125 45.527343-30.3125 105.265625 0 150.792969zm0 0" fill="#a0e557"/><path d="m488.566406 109.03125-40.738281-40.738281c-17.945313-17.945313-47.042969-17.945313-64.992187.003906-17.945313 17.945313-17.945313 47.046875 0 64.992187l40.734374 40.734376c17.949219 17.949218 47.046876 17.945312 64.996094 0 17.945313-17.945313 17.945313-47.046876 0-64.992188zm0 0" fill="#ff5d5d"/><path d="m408.796875 268.574219 54.660156-54.664063-38.558593-38.558594c-39.050782-39.046874-102.359376-39.046874-141.410157 0-31.058593 31.058594-37.410156 77.46875-19.0625 114.808594 46.382813 24.691406 105.28125 17.5 144.371094-21.585937zm0 0" fill="#fe8f8d"/><path d="m376.707031 127.160156-38.207031-38.207031c-17.945312-17.945313-17.945312-47.046875 0-64.992187l-92.75 92.753906.769531.769531c39.144531-29.042969 94.6875-25.820313 130.1875 9.675781zm0 0" fill="#ff5d5d"/><path d="m411.265625 161.441406 18.289063-18.289062c10.179687-10.175782 10.179687-26.679688 0-36.859375l-21.613282-21.613281c-10.175781-10.175782-26.679687-10.175782-36.855468 0-10.179688 10.179687-10.179688 26.679687 0 36.859374l3.546874 3.550782zm0 0" fill="#ffb9b7"/><path d="m441.339844 71.796875c2.628906 0 5.199218-1.058594 7.070312-2.917969 1.859375-1.871094 2.929688-4.441406 2.929688-7.070312 0-2.640625-1.070313-5.210938-2.929688-7.082032-1.871094-1.859374-4.441406-2.929687-7.070312-2.929687s-5.210938 1.070313-7.078125 2.929687c-1.863281 1.871094-2.921875 4.441407-2.921875 7.082032 0 2.628906 1.058594 5.199218 2.921875 7.070312 1.867187 1.859375 4.449219 2.917969 7.078125 2.917969zm0 0"/><path d="m495.636719 101.957031-19.894531-19.894531c-3.90625-3.902344-10.238282-3.902344-14.144532 0-3.90625 3.90625-3.90625 10.238281 0 14.144531l19.894532 19.894531c6.792968 6.792969 10.53125 15.820313 10.53125 25.425782 0 9.605468-3.738282 18.632812-10.53125 25.425781-6.789063 6.792969-15.820313 10.53125-25.425782 10.53125-9.605468 0-18.632812-3.738281-25.425781-10.53125l-5.371094-5.375 11.359375-11.355469c6.808594-6.8125 10.5625-15.867187 10.5625-25.5 0-9.632812-3.753906-18.6875-10.5625-25.5l-21.617187-21.613281c-6.808594-6.8125-15.867188-10.5625-25.5-10.5625-9.632813 0-18.6875 3.75-25.5 10.5625-4.078125 4.078125-6.964844 8.902344-8.679688 14.035156l-9.757812-9.761719c-6.792969-6.789062-10.535157-15.820312-10.535157-25.425781 0-9.601562 3.742188-18.632812 10.535157-25.425781 14.019531-14.019531 36.832031-14.019531 50.851562 0l10.035157 10.039062c3.90625 3.90625 10.238281 3.90625 14.144531 0s3.90625-10.238281 0-14.144531l-10.039063-10.039062c-10.570312-10.566407-24.621094-16.386719-39.566406-16.386719-14.949219 0-29 5.820312-39.570312 16.390625l-107.332032 107.328125c-.59375.59375-1.085937 1.25-1.496094 1.9375-36.324218 42.183594-35.351562 105.597656 2.898438 146.652344l-70.585938 70.589844c3.09375-11.933594 4.699219-24.335938 4.699219-36.988282 0-39.066406-15.210937-75.792968-42.832031-103.414062-3.90625-3.90625-10.238281-3.90625-14.144531 0-54.644531 54.644531-56.914063 142.121094-6.828125 199.503906l-92.878906 92.882812c-3.90625 3.902344-3.90625 10.234376 0 14.140626 1.953124 1.953124 4.511718 2.929687 7.070312 2.929687s5.121094-.976563 7.070312-2.929687l92.878907-92.875c26.632812 23.289062 60.386719 36.007812 96.101562 36.007812 39.0625 0 75.789063-15.210938 103.414063-42.835938 3.902344-3.902343 3.902344-10.234374 0-14.140624-27.625-27.625-64.351563-42.835938-103.414063-42.835938-12.660156 0-25.066406 1.605469-37.003906 4.707031l71.234375-71.234375c23.917969 18.746094 52.839844 28.128906 81.765625 28.128906 33.976563 0 67.953125-12.933593 93.820313-38.800781l54.660156-54.660156c1.875-1.875 2.929687-4.421875 2.929687-7.074219s-1.054687-5.195312-2.929687-7.070312l-9.574219-9.574219c13.101563-1.128906 25.273437-6.761719 34.683594-16.167969 21.816406-21.820312 21.816406-57.320312 0-79.140625zm-117.480469-10.203125c3.03125-3.035156 7.066406-4.707031 11.355469-4.707031 4.292969 0 8.324219 1.671875 11.359375 4.707031l21.613281 21.613282c3.03125 3.03125 4.703125 7.066406 4.703125 11.355468 0 4.289063-1.671875 8.324219-4.703125 11.355469l-11.359375 11.359375-29.417969-29.417969s0-.003906-.003906-.003906l-3.554687-3.554687c-6.253907-6.261719-6.253907-16.449219.007812-22.707032zm-62.894531-30.410156c.886719 10.320312 4.566406 20.066406 10.691406 28.335938-6.515625-1.1875-13.183594-1.804688-19.949219-1.804688-6.394531 0-12.703125.542969-18.878906 1.605469zm-205.550781 163.464844c19.355468 22.773437 29.902343 51.375 29.902343 81.597656 0 24.527344-6.945312 47.980469-19.90625 68.125v-83.75c0-5.523438-4.476562-10-10-10-5.523437 0-10 4.476562-10 10v83.691406c-29.449219-46.003906-26.117187-107.078125 10.003907-149.664062zm177.941406 177.941406c-22.773438 19.355469-51.378906 29.90625-81.601563 29.90625-24.523437 0-47.980469-6.945312-68.121093-19.90625h43.578124c5.523438 0 10-4.476562 10-10s-4.476562-10-10-10h-43.578124c20.140624-12.960938 43.597656-19.90625 68.121093-19.90625 30.222657 0 58.828125 10.550781 81.601563 29.90625zm114.070312-141.25c-43.933594 43.933594-115.417968 43.933594-159.351562 0-35.085938-35.082031-35.089844-92.167969-.011719-127.257812l.019531-.019532c16.996094-16.988281 39.589844-26.347656 63.625-26.347656 24.039063 0 46.636719 9.359375 63.632813 26.359375l79.675781 79.675781zm0 0"/><path d="m360.230469 220.011719c-10.199219 10.199219-23.757813 15.816406-38.183594 15.816406s-27.984375-5.617187-38.1875-15.816406c-3.902344-3.90625-10.238281-3.90625-14.140625 0-3.90625 3.902343-3.90625 10.238281 0 14.144531 13.976562 13.976562 32.558594 21.671875 52.328125 21.671875 19.765625 0 38.347656-7.695313 52.328125-21.671875 3.902344-3.90625 3.902344-10.238281 0-14.144531-3.90625-3.90625-10.238281-3.90625-14.144531 0zm0 0"/><path d="m221.679688 412.753906c2.632812 0 5.203124-1.070312 7.070312-2.933594 1.859375-1.867187 2.929688-4.4375 2.929688-7.066406 0-2.632812-1.070313-5.210937-2.929688-7.070312-1.859375-1.871094-4.4375-2.929688-7.070312-2.929688-2.640626 0-5.21875 1.058594-7.078126 2.929688-1.859374 1.859375-2.929687 4.4375-2.929687 7.070312 0 2.628906 1.070313 5.199219 2.929687 7.066406 1.867188 1.863282 4.4375 2.933594 7.078126 2.933594zm0 0"/></svg>