<svg height="512pt" viewBox="0 -20 512 512" width="512pt" xmlns="http://www.w3.org/2000/svg"><path d="m448 390.886719v-306.886719c0-11.046875-8.953125-20-20-20h-398c-11.046875 0-20 8.953125-20 20v329.886719c0 26.511719 21.488281 48 48 48s48-21.488281 48-48v-3c0-11.046875 8.953125-20 20-20zm0 0" fill="#fff"/><path d="m502 414.203125v-3c0-11.046875-8.953125-20.316406-20-20.316406h-240c-11.046875 0-20 8.957031-20 20v3c0 26.511719-21.488281 48-48 48v.316406h280c26.511719 0 48-21.492187 48-48zm0 0" fill="#ade5ff"/><path d="m428 64h-304.332031c-11.046875 0-20 8.953125-20 20v70h344.332031v-70c0-11.046875-8.953125-20-20-20zm0 0" fill="#ff5d5d"/><path d="m229 226.496094c-.835938-.921875-1.714844-1.796875-2.621094-2.644532-9.003906 8.417969-14.675781 20.632813-14.675781 34.234376 0 24.667968 25.289063 48.984374 46.722656 65.160156 21.429688-16.175782 46.71875-40.492188 46.71875-65.160156 0-25.390626-19.746093-45.972657-44.105469-45.972657-12.621093 0-24 5.527344-32.039062 14.382813zm0 0" fill="#ff5d5d"/><path d="m123.667969 112c-11.046875 0-20-8.953125-20-20v-62c0-11.046875 8.953125-20 20-20s20 8.953125 20 20v62c0 11.046875-8.957031 20-20 20zm0 0" fill="#ade5ff"/><path d="m332.332031 112c11.046875 0 20-8.953125 20-20v-62c0-11.046875-8.953125-20-20-20s-20 8.953125-20 20v62c0 11.046875 8.957031 20 20 20zm0 0" fill="#ade5ff"/><path d="m482 380.886719h-356c-16.542969 0-30 13.460937-30 30v3c0 20.953125-17.046875 38-38 38s-38-17.046875-38-38v-249.886719h28v125.101562c0 5.523438 4.476562 10 10 10s10-4.476562 10-10v-125.101562h370v137.601562c0 5.523438 4.476562 10 10 10s10-4.476562 10-10v-217.601562c0-16.542969-13.457031-30-30-30h-65.667969v-24c0-16.542969-13.457031-30-30-30s-30 13.457031-30 30v24h-148.664062v-24c0-16.542969-13.457031-30-30-30s-30 13.457031-30 30v24h-63.667969c-16.542969 0-30 13.457031-30 30v329.886719c0 31.066406 24.550781 56.503906 55.269531 57.9375.867188.246093 1.785157.375 2.730469.375h396c31.980469 0 58-26.015625 58-58v-3c0-16.710938-13.457031-30.3125-30-30.3125zm-159.667969-350.886719c0-5.515625 4.488281-10 10-10 5.515625 0 10 4.484375 10 10v62c0 5.515625-4.484375 10-10 10-5.511719 0-10-4.484375-10-10zm-208.664062 0c0-5.515625 4.484375-10 10-10 5.511719 0 10 4.484375 10 10v62c0 5.515625-4.488281 10-10 10-5.515625 0-10-4.484375-10-10zm-83.667969 44h63.667969v18c0 16.542969 13.457031 30 30 30s30-13.457031 30-30v-18h148.667969v18c0 16.542969 13.457031 30 30 30 16.539062 0 30-13.457031 30-30v-18h65.664062c5.515625 0 10 4.484375 10 10v60h-418v-60c0-5.515625 4.484375-10 10-10zm462 340.203125c0 20.953125-17.046875 38-38 38h-352.492188c9.015626-10.226563 14.492188-23.644531 14.492188-38.316406v-3c0-5.511719 4.484375-10 10-10h356c5.421875 0 10 4.722656 10 10.3125zm0 0"/><path d="m448 332.640625c-2.628906 0-5.210938 1.058594-7.070312 2.929687-1.859376 1.859376-2.929688 4.429688-2.929688 7.070313 0 2.628906 1.070312 5.210937 2.929688 7.070313 1.859374 1.859374 4.441406 2.929687 7.070312 2.929687s5.210938-1.070313 7.070312-2.929687c1.859376-1.859376 2.929688-4.441407 2.929688-7.070313s-1.070312-5.210937-2.929688-7.070313c-1.859374-1.871093-4.441406-2.929687-7.070312-2.929687zm0 0"/><path d="m229 212.992188c-9.222656-6.996094-20.480469-10.878907-32.039062-10.878907-29.832032 0-54.105469 25.109375-54.105469 55.972657 0 20.867187 14.027343 43.082031 41.691406 66.023437 19.546875 16.214844 38.832031 26.851563 39.644531 27.296875 1.5.820312 3.152344 1.234375 4.808594 1.234375s3.3125-.414063 4.808594-1.234375c.8125-.445312 20.097656-11.082031 39.644531-27.296875 27.664063-22.941406 41.691406-45.15625 41.691406-66.023437 0-30.863282-24.273437-55.972657-54.105469-55.972657-11.558593 0-22.816406 3.882813-32.039062 10.878907zm66.144531 45.09375c0 27.976562-44 59.878906-66.148437 73.03125-22.152344-13.132813-66.136719-44.996094-66.136719-73.03125 0-19.835938 15.296875-35.972657 34.101563-35.972657 9.386718 0 18.136718 3.941407 24.636718 11.101563 1.894532 2.089844 4.582032 3.28125 7.402344 3.28125s5.511719-1.191406 7.40625-3.28125c6.5-7.160156 15.246094-11.101563 24.632812-11.101563 18.804688 0 34.105469 16.136719 34.105469 35.972657zm0 0"/><path d="m58 320.769531c-2.628906 0-5.210938 1.0625-7.070312 2.929688-1.859376 1.863281-2.929688 4.433593-2.929688 7.070312 0 2.632813 1.070312 5.210938 2.929688 7.070313 1.859374 1.859375 4.441406 2.929687 7.070312 2.929687s5.210938-1.070312 7.070312-2.929687c1.859376-1.867188 2.929688-4.4375 2.929688-7.070313 0-2.636719-1.070312-5.207031-2.929688-7.070312-1.859374-1.867188-4.441406-2.929688-7.070312-2.929688zm0 0"/></svg>