<svg height="512pt" viewBox="-61 0 512 512.001" width="512pt" xmlns="http://www.w3.org/2000/svg"><path d="m239.949219 408.347656 16.867187.003906v-12.066406h-124.464844v12.066406l16.867188-.003906c14.277344-.003906 26.503906 8.652344 28.875 20.503906 2.480469 12.402344 4.539062 27.390626 2.269531 35.757813-3.203125 11.824219-14.277343 21.746094-27.335937 26.875l-15.265625 5.996094c-2.988281 1.171875-5.125 3.574219-5.378907 6.339843-.414062 4.457032 3.761719 8.179688 8.96875 8.179688h106.46875c5.207032 0 9.378907-3.722656 8.96875-8.179688-.257812-2.769531-2.390624-5.167968-5.378906-6.339843l-15.265625-5.996094c-13.0625-5.132813-24.132812-15.050781-27.339843-26.878906-2.265626-8.363281-.210938-23.351563 2.269531-35.757813 2.371093-11.847656 14.597656-20.503906 28.875-20.5zm0 0" fill="#b2b9bf"/><path d="m272.128906 204.816406h-155.089844v-95.238281c0-4.09375 3.320313-7.410156 7.410157-7.410156h140.269531c4.089844 0 7.410156 3.316406 7.410156 7.410156zm0 0" fill="#ff94a6"/><path d="m264.71875 102.164062h-51.035156c4.09375 0 7.410156 3.320313 7.410156 7.414063v95.238281h51.035156v-95.238281c0-4.09375-3.320312-7.414063-7.410156-7.414063zm0 0" fill="#f4849c"/><path d="m318.097656 296.550781h-247.027344v-95.242187c0-4.09375 3.316407-7.410156 7.410157-7.410156h232.207031c4.09375 0 7.410156 3.316406 7.410156 7.410156zm0 0" fill="#ff94a6"/><path d="m310.6875 193.898438h-51.03125c4.089844 0 7.410156 3.316406 7.410156 7.410156v95.242187h51.03125v-95.242187c0-4.09375-3.316406-7.410156-7.410156-7.410156zm0 0" fill="#f4849c"/><path d="m353.578125 392.199219h-317.988281v-95.238281c0-4.09375 3.316406-7.410157 7.410156-7.410157h303.167969c4.09375 0 7.410156 3.316407 7.410156 7.410157zm0 0" fill="#ff94a6"/><path d="m346.167969 289.550781h-51.035157c4.09375 0 7.414063 3.316407 7.414063 7.410157v95.238281h51.03125v-95.238281c0-4.09375-3.316406-7.410157-7.410156-7.410157zm0 0" fill="#f4849c"/><path d="m194.585938 113.894531c-4.269532 0-7.726563-3.460937-7.726563-7.726562v-29.414063c0-4.269531 3.457031-7.726562 7.726563-7.726562 4.265624 0 7.722656 3.457031 7.722656 7.726562v29.414063c0 4.265625-3.457032 7.726562-7.722656 7.726562zm0 0" fill="#3e678c"/><path d="m376.628906 383.808594h-364.089844c-6.925781 0-12.539062 5.613281-12.539062 12.539062 0 6.925782 5.613281 12.539063 12.539062 12.539063h364.089844c6.925782 0 12.539063-5.613281 12.539063-12.539063 0-6.925781-5.613281-12.539062-12.539063-12.539062zm0 0" fill="#d7dee3"/><path d="m376.628906 383.808594h-38.496094v25.078125h38.496094c6.925782 0 12.539063-5.613281 12.539063-12.539063 0-6.925781-5.613281-12.539062-12.539063-12.539062zm0 0" fill="#ced6db"/><path d="m264.71875 102.164062h-140.265625c-4.09375 0-7.414063 3.320313-7.414063 7.414063v23.632813c12.925782 0 12.925782 8.714843 25.847657 8.714843s12.921875-8.714843 25.847656-8.714843c12.921875 0 12.921875 8.714843 25.84375 8.714843 12.925781 0 12.925781-8.714843 25.847656-8.714843 12.925781 0 12.925781 8.714843 25.851563 8.714843 12.925781 0 12.925781-8.714843 25.851562-8.714843v-23.632813c0-4.09375-3.320312-7.414063-7.410156-7.414063zm0 0" fill="#995542"/><path d="m271.089844 105.804688c-.253906-.425782-.550782-.824219-.882813-1.191407-.226562-.253906-.46875-.492187-.726562-.710937-.0625-.050782-.128907-.101563-.191407-.148438-.515624-.40625-1.078124-.746094-1.6875-1.003906-.441406-.1875-.910156-.332031-1.390624-.433594-.484376-.097656-.984376-.148437-1.496094-.148437h-51.03125c4.09375 0 7.410156 3.316406 7.410156 7.410156v23.648437c12.253906.300782 12.488281 8.699219 25.183594 8.699219 12.925781 0 12.925781-8.714843 25.851562-8.714843v-23.632813c0-1.144531-.269531-2.226563-.734375-3.195313-.09375-.199218-.195312-.390624-.304687-.578124zm0 0" fill="#844535"/><path d="m310.6875 193.898438h-232.207031c-4.09375 0-7.410157 3.316406-7.410157 7.410156v23.417968c15.4375 0 15.4375 10.890626 30.871094 10.890626 15.4375 0 15.4375-10.890626 30.875-10.890626s15.4375 10.890626 30.878906 10.890626c15.4375 0 15.4375-10.890626 30.878907-10.890626 15.4375 0 15.4375 10.890626 30.878906 10.890626 15.4375 0 15.4375-10.890626 30.878906-10.890626 15.441407 0 15.441407 10.890626 30.882813 10.890626s15.441406-10.890626 30.882812-10.890626v-23.417968c0-4.09375-3.316406-7.410156-7.410156-7.410156zm0 0" fill="#995542"/><path d="m317.765625 199.105469c-.722656-2.320313-2.550781-4.152344-4.875-4.875-.230469-.070313-.46875-.132813-.707031-.183594-.484375-.097656-.984375-.148437-1.496094-.148437h-51.03125c4.089844 0 7.410156 3.316406 7.410156 7.410156v25.859375c6.15625 3.210937 9.441406 8.449219 20.148438 8.449219 15.445312 0 15.445312-10.890626 30.882812-10.890626v-23.417968c0-.769532-.113281-1.507813-.332031-2.203125zm0 0" fill="#844535"/><path d="m346.167969 289.550781h-303.167969c-4.09375 0-7.410156 3.316407-7.410156 7.410157v26.28125c15.898437 0 15.898437 10.894531 31.796875 10.894531 15.898437 0 15.898437-10.894531 31.792969-10.894531 15.894531 0 15.894531 10.894531 31.792968 10.894531 15.898438 0 15.898438-10.894531 31.796875-10.894531 15.898438 0 15.898438 10.894531 31.800781 10.894531 15.898438 0 15.898438-10.894531 31.796876-10.894531 15.902343 0 15.902343 10.894531 31.800781 10.894531 15.902343 0 15.902343-10.894531 31.800781-10.894531 15.902344 0 15.902344 10.894531 31.804688 10.894531 15.902343 0 15.902343-10.894531 31.804687-10.894531v-26.28125c0-4.09375-3.316406-7.410157-7.410156-7.410157zm0 0" fill="#995542"/><path d="m346.167969 289.550781h-51.03125c4.089843 0 7.410156 3.316407 7.410156 7.410157v29.5625c5.429687 3.207031 9.113281 7.613281 19.230469 7.613281 15.898437 0 15.898437-10.894531 31.804687-10.894531v-26.28125c-.003906-4.09375-3.320312-7.410157-7.414062-7.410157zm0 0" fill="#844535"/><path d="m216.1875 0c-8.773438 0-16.585938 4.121094-21.601562 10.535156-5.019532-6.414062-12.832032-10.535156-21.605469-10.535156-15.140625 0-27.414063 12.273438-27.414063 27.414062 0 34.449219 49.019532 53.628907 49.019532 53.628907s49.015624-19.179688 49.015624-53.628907c0-15.140624-12.273437-27.414062-27.414062-27.414062zm0 0" fill="#fc6a58"/><path d="m216.1875 0c-8.773438 0-16.585938 4.121094-21.601562 10.535156-5.019532-6.414062-12.832032-10.535156-21.605469-10.535156-1.328125 0-2.632813.101562-3.914063.28125 13.289063 1.902344 23.503906 13.324219 23.503906 27.132812 0 16.753907-11.59375 29.894532-23.503906 38.972657 12.582032 9.59375 25.519532 14.65625 25.519532 14.65625s49.015624-19.179688 49.015624-53.625c0-15.144531-12.273437-27.417969-27.414062-27.417969zm0 0" fill="#e35052"/></svg>