<svg height="511pt" viewBox="-59 1 511 511.999" width="511pt" xmlns="http://www.w3.org/2000/svg"><path d="m240.917969 403.882812 16.375.007813v-11.714844h-120.816407v11.714844l16.371094-.007813c13.859375-.003906 25.726563 8.398438 28.027344 19.902344 2.410156 12.039063 4.40625 26.589844 2.203125 34.710938-3.109375 11.480468-13.859375 21.109375-26.535156 26.089844l-14.820313 5.816406c-2.898437 1.140625-4.972656 3.46875-5.21875 6.15625-.402344 4.328125 3.648438 7.941406 8.703125 7.941406h103.351563c5.054687 0 9.105468-3.613281 8.707031-7.941406-.25-2.6875-2.320313-5.015625-5.222656-6.15625l-14.820313-5.816406c-12.675781-4.980469-23.421875-14.609376-26.535156-26.089844-2.199219-8.121094-.203125-22.667969 2.203125-34.710938 2.300781-11.503906 14.171875-19.90625 28.027344-19.902344zm0 0" fill="#b2b9bf"/><path d="m272.15625 206.316406h-150.546875v-92.449218c0-3.972657 3.222656-7.195313 7.195313-7.195313h136.15625c3.972656 0 7.195312 3.222656 7.195312 7.195313zm0 0" fill="#ff94a6"/><path d="m264.960938 106.671875h-49.539063c3.976563 0 7.195313 3.222656 7.195313 7.195313v92.449218h49.539062v-92.449218c0-3.972657-3.222656-7.195313-7.195312-7.195313zm0 0" fill="#f4849c"/><path d="m316.78125 295.359375h-239.792969v-92.449219c0-3.972656 3.21875-7.191406 7.191407-7.191406h225.40625c3.972656 0 7.195312 3.21875 7.195312 7.191406zm0 0" fill="#ff94a6"/><path d="m309.585938 195.71875h-49.539063c3.972656 0 7.195313 3.21875 7.195313 7.191406v92.449219h49.539062v-92.449219c0-3.972656-3.222656-7.191406-7.195312-7.191406zm0 0" fill="#f4849c"/><path d="m351.21875 388.210938h-308.671875v-92.449219c0-3.972657 3.21875-7.195313 7.195313-7.195313h294.285156c3.972656 0 7.191406 3.222656 7.191406 7.195313zm0 0" fill="#ff94a6"/><path d="m344.027344 288.566406h-49.539063c3.972657 0 7.191407 3.222656 7.191407 7.195313v92.449219h49.539062v-92.449219c0-3.972657-3.21875-7.195313-7.191406-7.195313zm0 0" fill="#f4849c"/><path d="m373.59375 380.0625h-353.421875c-6.722656 0-12.171875 5.449219-12.171875 12.171875s5.449219 12.171875 12.171875 12.171875h353.421875c6.722656 0 12.171875-5.445312 12.171875-12.171875 0-6.722656-5.449219-12.171875-12.171875-12.171875zm0 0" fill="#d7dee3"/><path d="m373.59375 380.0625h-37.367188v24.34375h37.367188c6.722656 0 12.171875-5.449219 12.171875-12.171875s-5.449219-12.171875-12.171875-12.171875zm0 0" fill="#ced6db"/><path d="m264.960938 106.671875h-136.15625c-3.972657 0-7.195313 3.222656-7.195313 7.195313v22.941406c12.546875 0 12.546875 8.460937 25.089844 8.460937 12.546875 0 12.546875-8.460937 25.089843-8.460937 12.542969 0 12.542969 8.460937 25.089844 8.460937 12.542969 0 12.542969-8.460937 25.089844-8.460937s12.546875 8.460937 25.09375 8.460937 12.546875-8.460937 25.09375-8.460937v-22.941406c0-3.972657-3.222656-7.195313-7.195312-7.195313zm0 0" fill="#995542"/><path d="m271.148438 110.203125c-.246094-.414063-.535157-.800781-.855469-1.15625-.222657-.242187-.457031-.476563-.707031-.6875-.0625-.050781-.125-.097656-.1875-.148437-.496094-.390626-1.046876-.722657-1.636719-.972657-.429688-.183593-.882813-.324219-1.347657-.417969-.46875-.097656-.953124-.148437-1.453124-.148437h-49.539063c3.976563 0 7.195313 3.222656 7.195313 7.195313v22.957031c11.894531.289062 12.121093 8.445312 24.445312 8.445312 12.546875 0 12.546875-8.460937 25.09375-8.460937v-22.941406c0-1.113282-.257812-2.164063-.710938-3.101563-.09375-.191406-.191406-.378906-.296874-.5625zm0 0" fill="#844535"/><path d="m309.585938 195.71875h-225.40625c-3.972657 0-7.191407 3.21875-7.191407 7.191406v22.730469c14.984375 0 14.984375 10.574219 29.96875 10.574219s14.984375-10.574219 29.96875-10.574219c14.988281 0 14.988281 10.574219 29.972657 10.574219 14.988281 0 14.988281-10.574219 29.976562-10.574219s14.988281 10.574219 29.972656 10.574219c14.988282 0 14.988282-10.574219 29.976563-10.574219s14.988281 10.574219 29.976562 10.574219 14.988281-10.574219 29.976563-10.574219v-22.730469c.003906-3.972656-3.21875-7.191406-7.191406-7.191406zm0 0" fill="#995542"/><path d="m316.457031 200.773438c-.703125-2.253907-2.480469-4.03125-4.730469-4.734376-.226562-.066406-.457031-.128906-.691406-.175781-.464844-.09375-.953125-.144531-1.449218-.144531h-49.539063c3.972656 0 7.195313 3.21875 7.195313 7.191406v25.105469c5.976562 3.117187 9.164062 8.199219 19.558593 8.199219 14.992188 0 14.992188-10.574219 29.980469-10.574219v-22.730469c0-.746094-.113281-1.460937-.324219-2.136718zm0 0" fill="#844535"/><path d="m344.027344 288.566406h-294.285156c-3.976563 0-7.195313 3.222656-7.195313 7.195313v25.511719c15.433594 0 15.433594 10.574218 30.867187 10.574218 15.429688 0 15.429688-10.574218 30.859376-10.574218 15.429687 0 15.429687 10.574218 30.863281 10.574218 15.429687 0 15.429687-10.574218 30.863281-10.574218s15.433594 10.574218 30.867188 10.574218c15.433593 0 15.433593-10.574218 30.867187-10.574218 15.4375 0 15.4375 10.574218 30.871094 10.574218 15.433593 0 15.433593-10.574218 30.867187-10.574218 15.4375 0 15.4375 10.574218 30.875 10.574218s15.4375-10.574218 30.871094-10.574218v-25.511719c0-3.972657-3.21875-7.195313-7.191406-7.195313zm0 0" fill="#995542"/><path d="m344.027344 288.566406h-49.539063c3.972657 0 7.191407 3.222656 7.191407 7.195313v28.695312c5.273437 3.113281 8.851562 7.390625 18.667968 7.390625 15.4375 0 15.4375-10.574218 30.871094-10.574218v-25.511719c0-3.972657-3.21875-7.195313-7.191406-7.195313zm0 0" fill="#844535"/><path d="m217.851562 7.5c-8.515624 0-16.097656 4-20.96875 10.226562-4.871093-6.226562-12.453124-10.226562-20.96875-10.226562-14.699218 0-26.613281 11.914062-26.613281 26.613281 0 33.4375 47.582031 52.054688 47.582031 52.054688s47.582032-18.617188 47.582032-52.054688c0-14.699219-11.914063-26.613281-26.613282-26.613281zm0 0" fill="#fc6a58"/><path d="m217.851562 7.5c-8.515624 0-16.097656 4-20.96875 10.226562-4.871093-6.226562-12.453124-10.226562-20.96875-10.226562-1.292968 0-2.558593.097656-3.800781.273438 12.898438 1.84375 22.8125 12.929687 22.8125 26.339843 0 16.257813-11.25 29.015625-22.8125 37.828125 12.214844 9.3125 24.769531 14.226563 24.769531 14.226563s47.582032-18.617188 47.582032-52.054688c0-14.699219-11.914063-26.613281-26.613282-26.613281zm0 0" fill="#e35052"/><path d="m373.59375 372.5625h-14.875v-76.800781c0-8.105469-6.589844-14.695313-14.691406-14.695313h-19.746094v-78.15625c0-8.101562-6.59375-14.691406-14.695312-14.691406h-29.929688v-74.351562c0-8.101563-6.59375-14.695313-14.695312-14.695313h-60.578126v-8.105469c12.976563-6.089844 47.582032-25.308594 47.582032-56.953125 0-18.808593-15.300782-34.113281-34.113282-34.113281-7.726562 0-15.046874 2.558594-20.96875 7.191406-5.921874-4.632812-13.242187-7.191406-20.96875-7.191406-18.8125 0-34.113281 15.304688-34.113281 34.113281 0 31.644531 34.605469 50.863281 47.582031 56.953125v8.105469h-60.578124c-8.101563 0-14.695313 6.59375-14.695313 14.695313v74.351562h-29.929687c-8.101563 0-14.691407 6.589844-14.691407 14.691406v78.15625h-19.746093c-8.105469 0-14.695313 6.59375-14.695313 14.695313v76.800781h-14.875c-10.847656 0-19.671875 8.824219-19.671875 19.671875s8.824219 19.671875 19.671875 19.671875h137.804687c8.050782 1.613281 14.257813 6.917969 15.542969 13.351562 4.140625 20.6875 3 28.761719 2.320313 31.277344-2.324219 8.566406-10.765625 16.640625-22.039063 21.066406l-14.820312 5.820313c-5.628907 2.214844-9.441407 6.980469-9.949219 12.445313-.363281 3.949218.949219 7.789062 3.703125 10.804687 3.085937 3.386719 7.632813 5.328125 12.472656 5.328125h103.351563c4.839844 0 9.386718-1.941406 12.472656-5.328125 2.75-3.019531 4.066406-6.855469 3.699219-10.804687-.503907-5.464844-4.316407-10.230469-9.949219-12.445313l-14.816406-5.820313c-11.273438-4.425781-19.71875-12.5-22.039063-21.070312-.679687-2.511719-1.816406-10.589844 2.320313-31.277344 1.285156-6.429687 7.492187-11.734375 15.539062-13.347656h137.808594c10.847656 0 19.671875-8.828125 19.671875-19.671875 0-10.847656-8.824219-19.671875-19.671875-19.671875zm-216.792969-338.449219c0-10.539062 8.574219-19.113281 19.113281-19.113281 5.917969 0 11.410157 2.679688 15.0625 7.347656 1.421876 1.816406 3.601563 2.878906 5.90625 2.878906 2.308594 0 4.484376-1.0625 5.90625-2.878906 3.65625-4.667968 9.144532-7.347656 15.0625-7.347656 10.539063 0 19.113282 8.574219 19.113282 19.113281 0 11.289063-6.898438 22.175781-20.511719 32.359375-7.710937 5.765625-15.554687 9.691406-19.570313 11.523438-4.015624-1.835938-11.859374-5.757813-19.570312-11.523438-13.609375-10.183594-20.511719-21.070312-20.511719-32.359375zm107.855469 80.058594v16.074219c-4.097656 1.105468-6.894531 2.992187-9.238281 4.574218-2.820313 1.902344-4.375 2.949219-8.355469 2.949219s-5.535156-1.046875-8.355469-2.949219c-3.449219-2.328124-8.171875-5.511718-16.738281-5.511718s-13.289062 3.1875-16.738281 5.511718c-2.820313 1.902344-4.371094 2.949219-8.351563 2.949219-3.980468 0-5.53125-1.046875-8.351562-2.949219-3.449219-2.328124-8.171875-5.511718-16.738282-5.511718-8.566406 0-13.289062 3.183594-16.738281 5.511718-2.816406 1.902344-4.371093 2.949219-8.351562 2.949219-3.976563 0-5.53125-1.046875-8.351563-2.949219-2.273437-1.535156-5.109375-3.445312-9.234375-4.566406v-16.082031zm-117.230469 89.046875c4.140625 0 7.5-3.359375 7.5-7.5 0-4.144531-3.359375-7.5-7.5-7.5h-18.3125v-41.53125c.269531.179688.554688.371094.851563.570312 3.449218 2.324219 8.171875 5.511719 16.738281 5.511719 8.5625 0 13.289063-3.1875 16.738281-5.511719 2.816406-1.902343 4.371094-2.949218 8.351563-2.949218 3.976562 0 5.53125 1.046875 8.347656 2.949218 3.449219 2.328126 8.175781 5.511719 16.738281 5.511719 8.566406 0 13.289063-3.183593 16.742188-5.511719 2.816406-1.902343 4.371094-2.949218 8.351562-2.949218 3.980469 0 5.535156 1.046875 8.351563 2.949218 3.453125 2.328126 8.175781 5.511719 16.742187 5.511719 8.5625 0 13.289063-3.183593 16.738282-5.511719.296874-.199218.582031-.390624.855468-.574218v41.535156h-82.109375c-4.144531 0-7.5 3.355469-7.5 7.5 0 4.140625 3.355469 7.5 7.5 7.5h126.730469v15.746094c-5.320312 1.253906-8.824219 3.726562-11.8125 5.835937-3.34375 2.355469-5.550781 3.914063-10.667969 3.914063-5.113281 0-7.320312-1.558594-10.664062-3.914063-4.207031-2.96875-9.4375-6.660156-19.3125-6.660156s-15.105469 3.691406-19.3125 6.660156c-3.339844 2.355469-5.546875 3.914063-10.664063 3.914063-5.113281 0-7.320312-1.558594-10.664062-3.914063-4.203125-2.964843-9.4375-6.660156-19.3125-6.660156-9.871094 0-15.105469 3.691406-19.308594 6.660156-3.34375 2.355469-5.550781 3.914063-10.664062 3.914063-5.113282 0-7.320313-1.558594-10.664063-3.914063-4.203125-2.96875-9.4375-6.660156-19.308594-6.660156-9.875 0-15.105469 3.691406-19.308593 6.660156-3.34375 2.355469-5.550782 3.914063-10.664063 3.914063-5.109375 0-7.316406-1.558594-10.660156-3.914063-2.984375-2.109375-6.488281-4.582031-11.808594-5.835937v-15.746094zm-45.511719 92.847656c4.140626 0 7.5-3.355468 7.5-7.5 0-4.140625-3.359374-7.5-7.5-7.5h-17.425781v-46.101562c1.027344.585937 2.027344 1.292968 3.160157 2.089844 4.203124 2.96875 9.4375 6.660156 19.308593 6.660156 9.871094 0 15.101563-3.691406 19.308594-6.660156 3.339844-2.355469 5.546875-3.914063 10.660156-3.914063s7.320313 1.558594 10.664063 3.914063c4.203125 2.96875 9.4375 6.660156 19.3125 6.660156 9.871094 0 15.105468-3.691406 19.308594-6.660156 3.34375-2.355469 5.550781-3.914063 10.664062-3.914063s7.320312 1.558594 10.664062 3.917969c4.203126 2.964844 9.4375 6.65625 19.308594 6.65625 9.875 0 15.109375-3.691406 19.3125-6.65625 3.34375-2.359375 5.550782-3.917969 10.664063-3.917969 5.117187 0 7.324219 1.558594 10.667969 3.917969 4.203124 2.964844 9.4375 6.65625 19.308593 6.65625 9.875 0 15.109375-3.691406 19.316407-6.65625 1.132812-.800782 2.132812-1.507813 3.164062-2.09375v46.101562h-172.464844c-4.140625 0-7.5 3.359375-7.5 7.5 0 4.144532 3.359375 7.5 7.5 7.5h206.902344v18.492188c-5.488281 1.234375-9.101562 3.707031-12.171875 5.8125-3.496094 2.394531-5.804687 3.976562-11.199219 3.976562-5.394531 0-7.703125-1.582031-11.199218-3.976562-4.289063-2.941406-9.632813-6.601563-19.675782-6.601563-10.039062 0-15.378906 3.660157-19.671875 6.601563-3.492187 2.394531-5.800781 3.976562-11.195312 3.976562s-7.703125-1.582031-11.195313-3.976562c-4.292968-2.9375-9.632812-6.597656-19.675781-6.597656-10.039063 0-15.378906 3.660156-19.671875 6.597656-3.492188 2.394531-5.800781 3.976562-11.195312 3.976562-5.394532 0-7.703126-1.582031-11.195313-3.976562-4.289063-2.9375-9.632813-6.597656-19.671875-6.597656s-15.378906 3.660156-19.671875 6.597656c-3.492187 2.394531-5.796875 3.976562-11.191406 3.976562s-7.699219-1.582031-11.191407-3.976562c-4.292968-2.9375-9.632812-6.597656-19.671874-6.597656-10.039063 0-15.378907 3.660156-19.671876 6.597656-3.488281 2.394531-5.796874 3.976562-11.1875 3.976562-5.394531 0-7.703124-1.582031-11.195312-3.976562-3.070312-2.101563-6.683594-4.578125-12.171875-5.8125v-18.492188zm-51.867187 34.347656c1.214844.632813 2.371094 1.425782 3.695313 2.332032 4.289062 2.941406 9.632812 6.601562 19.671874 6.601562 10.035157 0 15.375-3.660156 19.667969-6.601562 3.492188-2.394532 5.796875-3.976563 11.191407-3.976563 5.390624 0 7.699218 1.582031 11.191406 3.976563 4.289062 2.9375 9.628906 6.597656 19.667968 6.597656 10.039063 0 15.382813-3.660156 19.671876-6.597656 3.492187-2.394532 5.800781-3.976563 11.191406-3.976563 5.394531 0 7.703125 1.582031 11.195312 3.976563 4.292969 2.9375 9.632813 6.597656 19.671875 6.597656 10.039063 0 15.382813-3.660156 19.675781-6.597656 3.492188-2.394532 5.800782-3.976563 11.195313-3.976563s7.699219 1.582031 11.195313 3.976563c4.289062 2.941406 9.632812 6.601562 19.671874 6.601562 10.039063 0 15.382813-3.660156 19.671876-6.601562 3.492187-2.394532 5.800781-3.972656 11.195312-3.972656 5.398438 0 7.703125 1.578124 11.199219 3.972656 4.292969 2.941406 9.632812 6.601562 19.675781 6.601562 10.039062 0 15.382812-3.660156 19.671875-6.601562 1.328125-.90625 2.484375-1.699219 3.699219-2.332032v42.152344h-293.667969zm153.402344 130.042969c3.589843 13.257813 15.191406 24.886719 31.035156 31.109375l13.835937 5.433594h-102.871093l13.835937-5.433594c15.839844-6.222656 27.441406-17.851562 31.03125-31.105468 2.148438-7.917969 1.464844-20.394532-2.085937-38.144532-.753907-3.753906-2.238281-7.261718-4.328125-10.410156h25.960937c-2.089843 3.148438-3.578125 6.65625-4.328125 10.410156-3.546875 17.75-4.230468 30.226563-2.085937 38.140625zm170.144531-63.550781h-353.421875c-2.578125 0-4.671875-2.09375-4.671875-4.671875 0-2.574219 2.09375-4.671875 4.671875-4.671875h353.421875c2.578125 0 4.671875 2.097656 4.671875 4.671875 0 2.578125-2.09375 4.671875-4.671875 4.671875zm0 0"/></svg>